<?xml version='1.0' encoding='UTF-8'?>
<mxfile version="1.0" encoding="UTF-8"><diagram name="ArchiMate Model" id="archimate_diagram"><mxGraphModel dx="1050" dy="522" grid="1" gridSize="10"><root><mxCell id="0" /><mxCell id="1" parent="0" /><mxCell id="label_Motivation" value="Motivation" style="text;html=1;align=center;verticalAlign=middle;resizable=0;points=[];" vertex="1" parent="1"><mxGeometry x="117.0" y="38.0" width="200" height="30" as="geometry" /></mxCell><mxCell id="elem_m1" value="Boost Supply Chain Resilience" style="html=1;outlineConnect=0;whiteSpace=wrap;fillColor=#CCCCFF;shape=mxgraph.archimate3.application;appType=goal;archiType=oct;" vertex="1" parent="1"><mxGeometry x="127.0" y="226.0" width="120" height="60" as="geometry" /></mxCell><mxCell id="elem_m2" value="Enhance Product Quality" style="html=1;outlineConnect=0;whiteSpace=wrap;fillColor=#CCCCFF;shape=mxgraph.archimate3.application;appType=goal;archiType=oct;" vertex="1" parent="1"><mxGeometry x="217.0" y="226.0" width="120" height="60" as="geometry" /></mxCell><mxCell id="elem_m3" value="Minimize Downtime" style="html=1;outlineConnect=0;whiteSpace=wrap;fillColor=#CCCCFF;shape=mxgraph.archimate3.application;appType=goal;archiType=oct;" vertex="1" parent="1"><mxGeometry x="307.0" y="226.0" width="120" height="60" as="geometry" /></mxCell><mxCell id="elem_m4" value="Evolving Market Demands" style="html=1;outlineConnect=0;whiteSpace=wrap;fillColor=#CCCCFF;shape=mxgraph.archimate3.application;appType=driver;archiType=oct;" vertex="1" parent="1"><mxGeometry x="217.0" y="334.0" width="120" height="60" as="geometry" /></mxCell><mxCell id="elem_m5" value="Faster Turnaround Times" style="html=1;outlineConnect=0;whiteSpace=wrap;fillColor=#CCCCFF;shape=mxgraph.archimate3.application;appType=outcome;archiType=oct;" vertex="1" parent="1"><mxGeometry x="127.0" y="118.0" width="120" height="60" as="geometry" /></mxCell><mxCell id="elem_m6" value="Lower Production Costs" style="html=1;outlineConnect=0;whiteSpace=wrap;fillColor=#CCCCFF;shape=mxgraph.archimate3.application;appType=outcome;archiType=oct;" vertex="1" parent="1"><mxGeometry x="217.0" y="118.0" width="120" height="60" as="geometry" /></mxCell><mxCell id="elem_m7" value="Greater Flexibility in Responding to Customer Demand" style="html=1;outlineConnect=0;whiteSpace=wrap;fillColor=#CCCCFF;shape=mxgraph.archimate3.application;appType=outcome;archiType=oct;" vertex="1" parent="1"><mxGeometry x="307.0" y="118.0" width="120" height="60" as="geometry" /></mxCell><mxCell id="conn_elem_m4_elem_m1" style="html=1;shape=mxgraph.archimate3.relationship;archiType=influence;" edge="1" source="elem_m4" target="elem_m1" parent="1"><mxGeometry relative="1" as="geometry" /></mxCell><mxCell id="conn_elem_m4_elem_m2" style="html=1;shape=mxgraph.archimate3.relationship;archiType=influence;" edge="1" source="elem_m4" target="elem_m2" parent="1"><mxGeometry relative="1" as="geometry" /></mxCell><mxCell id="conn_elem_m4_elem_m3" style="html=1;shape=mxgraph.archimate3.relationship;archiType=influence;" edge="1" source="elem_m4" target="elem_m3" parent="1"><mxGeometry relative="1" as="geometry" /></mxCell><mxCell id="conn_elem_m1_elem_m5" style="html=1;shape=mxgraph.archimate3.relationship;archiType=influence;" edge="1" source="elem_m1" target="elem_m5" parent="1"><mxGeometry relative="1" as="geometry" /></mxCell><mxCell id="conn_elem_m2_elem_m6" style="html=1;shape=mxgraph.archimate3.relationship;archiType=influence;" edge="1" source="elem_m2" target="elem_m6" parent="1"><mxGeometry relative="1" as="geometry" /></mxCell><mxCell id="conn_elem_m3_elem_m7" style="html=1;shape=mxgraph.archimate3.relationship;archiType=influence;" edge="1" source="elem_m3" target="elem_m7" parent="1"><mxGeometry relative="1" as="geometry" /></mxCell><mxCell id="label_Strategy" value="Strategy" style="text;html=1;align=center;verticalAlign=middle;resizable=0;points=[];" vertex="1" parent="1"><mxGeometry x="252.0" y="938.0" width="200" height="30" as="geometry" /></mxCell><mxCell id="elem_s1" value="Smart Supply Chain Optimization" style="html=1;outlineConnect=0;whiteSpace=wrap;fillColor=#FFFFFF;shape=mxgraph.archimate3.rectangle;" vertex="1" parent="1"><mxGeometry x="352.0" y="1018.0" width="120" height="60" as="geometry" /></mxCell><mxCell id="elem_s2" value="Predictive Analytics" style="html=1;outlineConnect=0;whiteSpace=wrap;fillColor=#FFFFFF;shape=mxgraph.archimate3.rectangle;" vertex="1" parent="1"><mxGeometry x="127.0" y="1126.0" width="120" height="60" as="geometry" /></mxCell><mxCell id="elem_s3" value="IoT" style="html=1;outlineConnect=0;whiteSpace=wrap;fillColor=#FFFFFF;shape=mxgraph.archimate3.rectangle;" vertex="1" parent="1"><mxGeometry x="217.0" y="1126.0" width="120" height="60" as="geometry" /></mxCell><mxCell id="elem_s4" value="Machine Learning" style="html=1;outlineConnect=0;whiteSpace=wrap;fillColor=#FFFFFF;shape=mxgraph.archimate3.rectangle;" vertex="1" parent="1"><mxGeometry x="307.0" y="1126.0" width="120" height="60" as="geometry" /></mxCell><mxCell id="elem_s5" value="Establish Interconnected Network of Smart Devices and Sensors" style="html=1;outlineConnect=0;whiteSpace=wrap;fillColor=#FFFFFF;shape=mxgraph.archimate3.rectangle;" vertex="1" parent="1"><mxGeometry x="397.0" y="1126.0" width="120" height="60" as="geometry" /></mxCell><mxCell id="elem_s6" value="Implement Central Analytics Platform" style="html=1;outlineConnect=0;whiteSpace=wrap;fillColor=#FFFFFF;shape=mxgraph.archimate3.rectangle;" vertex="1" parent="1"><mxGeometry x="487.0" y="1126.0" width="120" height="60" as="geometry" /></mxCell><mxCell id="elem_s7" value="Utilize IoT-enabled Predictive Maintenance" style="html=1;outlineConnect=0;whiteSpace=wrap;fillColor=#FFFFFF;shape=mxgraph.archimate3.rectangle;" vertex="1" parent="1"><mxGeometry x="577.0" y="1126.0" width="120" height="60" as="geometry" /></mxCell><mxCell id="conn_elem_s2_elem_s1" style="html=1;shape=mxgraph.archimate3.relationship;archiType=association;" edge="1" source="elem_s2" target="elem_s1" parent="1"><mxGeometry relative="1" as="geometry" /></mxCell><mxCell id="conn_elem_s3_elem_s1" style="html=1;shape=mxgraph.archimate3.relationship;archiType=association;" edge="1" source="elem_s3" target="elem_s1" parent="1"><mxGeometry relative="1" as="geometry" /></mxCell><mxCell id="conn_elem_s4_elem_s1" style="html=1;shape=mxgraph.archimate3.relationship;archiType=association;" edge="1" source="elem_s4" target="elem_s1" parent="1"><mxGeometry relative="1" as="geometry" /></mxCell><mxCell id="conn_elem_s5_elem_s1" style="html=1;shape=mxgraph.archimate3.relationship;archiType=assignment;" edge="1" source="elem_s5" target="elem_s1" parent="1"><mxGeometry relative="1" as="geometry" /></mxCell><mxCell id="conn_elem_s6_elem_s1" style="html=1;shape=mxgraph.archimate3.relationship;archiType=assignment;" edge="1" source="elem_s6" target="elem_s1" parent="1"><mxGeometry relative="1" as="geometry" /></mxCell><mxCell id="conn_elem_s7_elem_s1" style="html=1;shape=mxgraph.archimate3.relationship;archiType=assignment;" edge="1" source="elem_s7" target="elem_s1" parent="1"><mxGeometry relative="1" as="geometry" /></mxCell><mxCell id="label_Business" value="Business" style="text;html=1;align=center;verticalAlign=middle;resizable=0;points=[];" vertex="1" parent="1"><mxGeometry x="27.0" y="1838.0" width="200" height="30" as="geometry" /></mxCell><mxCell id="elem_b1" value="Streamline Production and Distribution" style="html=1;outlineConnect=0;whiteSpace=wrap;fillColor=#ffff99;shape=mxgraph.archimate3.application;appType=proc;archiType=rounded;" vertex="1" parent="1"><mxGeometry x="127.0" y="2134.0" width="120" height="60" as="geometry" /></mxCell><mxCell id="elem_b2" value="Increase Transparency" style="html=1;outlineConnect=0;whiteSpace=wrap;fillColor=#ffff99;shape=mxgraph.archimate3.application;appType=proc;archiType=rounded;" vertex="1" parent="1"><mxGeometry x="127.0" y="2026.0" width="120" height="60" as="geometry" /></mxCell><mxCell id="elem_b3" value="Reduce Operational Costs" style="html=1;outlineConnect=0;whiteSpace=wrap;fillColor=#ffff99;shape=mxgraph.archimate3.application;appType=proc;archiType=rounded;" vertex="1" parent="1"><mxGeometry x="127.0" y="1918.0" width="120" height="60" as="geometry" /></mxCell><mxCell id="conn_elem_b1_elem_b2" style="html=1;shape=mxgraph.archimate3.relationship;archiType=triggering;" edge="1" source="elem_b1" target="elem_b2" parent="1"><mxGeometry relative="1" as="geometry" /></mxCell><mxCell id="conn_elem_b2_elem_b3" style="html=1;shape=mxgraph.archimate3.relationship;archiType=triggering;" edge="1" source="elem_b2" target="elem_b3" parent="1"><mxGeometry relative="1" as="geometry" /></mxCell><mxCell id="label_Application" value="Application" style="text;html=1;align=center;verticalAlign=middle;resizable=0;points=[];" vertex="1" parent="1"><mxGeometry x="117.0" y="2738.0" width="200" height="30" as="geometry" /></mxCell><mxCell id="elem_a1" value="Central Analytics Platform" style="html=1;outlineConnect=0;whiteSpace=wrap;fillColor=#99ffff;shape=mxgraph.archimate3.application;appType=comp;archiType=square;" vertex="1" parent="1"><mxGeometry x="217.0" y="2926.0" width="120" height="60" as="geometry" /></mxCell><mxCell id="elem_a2" value="Demand Prediction" style="html=1;outlineConnect=0;whiteSpace=wrap;fillColor=#99ffff;shape=mxgraph.archimate3.application;appType=serv;archiType=rounded;" vertex="1" parent="1"><mxGeometry x="127.0" y="2818.0" width="120" height="60" as="geometry" /></mxCell><mxCell id="elem_a3" value="Production Schedule Optimization" style="html=1;outlineConnect=0;whiteSpace=wrap;fillColor=#99ffff;shape=mxgraph.archimate3.application;appType=serv;archiType=rounded;" vertex="1" parent="1"><mxGeometry x="217.0" y="2818.0" width="120" height="60" as="geometry" /></mxCell><mxCell id="elem_a4" value="Bottleneck Prevention" style="html=1;outlineConnect=0;whiteSpace=wrap;fillColor=#99ffff;shape=mxgraph.archimate3.application;appType=serv;archiType=rounded;" vertex="1" parent="1"><mxGeometry x="307.0" y="2818.0" width="120" height="60" as="geometry" /></mxCell><mxCell id="conn_elem_a1_elem_a2" style="html=1;shape=mxgraph.archimate3.relationship;archiType=serving;" edge="1" source="elem_a1" target="elem_a2" parent="1"><mxGeometry relative="1" as="geometry" /></mxCell><mxCell id="conn_elem_a1_elem_a3" style="html=1;shape=mxgraph.archimate3.relationship;archiType=serving;" edge="1" source="elem_a1" target="elem_a3" parent="1"><mxGeometry relative="1" as="geometry" /></mxCell><mxCell id="conn_elem_a1_elem_a4" style="html=1;shape=mxgraph.archimate3.relationship;archiType=serving;" edge="1" source="elem_a1" target="elem_a4" parent="1"><mxGeometry relative="1" as="geometry" /></mxCell><mxCell id="label_Technology" value="Technology" style="text;html=1;align=center;verticalAlign=middle;resizable=0;points=[];" vertex="1" parent="1"><mxGeometry x="72.0" y="3638.0" width="200" height="30" as="geometry" /></mxCell><mxCell id="elem_t1" value="Smart Devices and Sensors" style="html=1;outlineConnect=0;whiteSpace=wrap;fillColor=#AFFFAF;shape=mxgraph.archimate3.application;appType=node;archiType=square;" vertex="1" parent="1"><mxGeometry x="172.0" y="3826.0" width="120" height="60" as="geometry" /></mxCell><mxCell id="elem_t2" value="Real-time Data Capture" style="html=1;outlineConnect=0;whiteSpace=wrap;fillColor=#AFFFAF;shape=mxgraph.archimate3.application;appType=serv;archiType=rounded;" vertex="1" parent="1"><mxGeometry x="127.0" y="3718.0" width="120" height="60" as="geometry" /></mxCell><mxCell id="elem_t3" value="Predictive Maintenance" style="html=1;outlineConnect=0;whiteSpace=wrap;fillColor=#AFFFAF;shape=mxgraph.archimate3.application;appType=serv;archiType=rounded;" vertex="1" parent="1"><mxGeometry x="217.0" y="3718.0" width="120" height="60" as="geometry" /></mxCell><mxCell id="conn_elem_t1_elem_t2" style="html=1;shape=mxgraph.archimate3.relationship;archiType=serving;" edge="1" source="elem_t1" target="elem_t2" parent="1"><mxGeometry relative="1" as="geometry" /></mxCell><mxCell id="conn_elem_t1_elem_t3" style="html=1;shape=mxgraph.archimate3.relationship;archiType=serving;" edge="1" source="elem_t1" target="elem_t3" parent="1"><mxGeometry relative="1" as="geometry" /></mxCell></root></mxGraphModel></diagram></mxfile>